<svg preserveAspectRatio="none" overflow="visible" style="display: block;" width="94.5385" height="24.58" viewBox="0 0 94.5385 24.58" fill="none" xmlns="http://www.w3.org/2000/svg">
<g id="Icon" clip-path="url(#clip0_0_5)">
<path id="Vector" d="M57.0104 17.6536C56.6736 17.8031 56.181 18.0216 55.5004 18.0216C53.9423 18.0216 53.1225 16.9595 53.1225 13.6902C53.1225 10.2541 54.1476 9.15056 55.6233 9.15056C56.3822 9.15056 56.8741 9.5878 57.2224 10.0251V17.5634C57.16 17.5871 57.0894 17.6185 57.0104 17.6536ZM60.4817 6.2769C60.4817 5.20053 60.5179 4.21154 60.5371 3.80564C60.5427 3.68688 60.4433 3.59148 60.327 3.60205L57.3745 3.94265C57.2885 3.95049 57.2224 4.02363 57.2224 4.1115V7.0266C57.2224 7.77615 57.2634 8.54666 57.2634 8.54666C56.8331 8.42164 56.2589 8.31763 55.7057 8.31763C52.5076 8.31763 49.7605 10.0461 49.7605 14.3775C49.7605 18.1673 51.7487 19.6667 53.7784 19.6667C55.2134 19.6667 56.3615 19.0836 57.243 18.3133H57.325L57.2833 19.4626C57.2785 19.5851 57.3838 19.6819 57.503 19.6648L60.3155 19.3458C60.4108 19.3323 60.4817 19.2494 60.4817 19.1516V6.2769ZM6.8879 5.61034C9.14265 5.61034 9.96277 7.63022 9.96277 12.503C9.96277 17.3965 8.99929 18.7919 6.96985 18.7919C4.67382 18.7919 3.89484 16.7926 3.89484 11.9409C3.89484 7.02635 4.89931 5.61034 6.8879 5.61034ZM7.01099 4.73579C3.7103 4.73579 0 6.90135 0 12.3781C0 17.3759 3.32098 19.6664 6.84662 19.6664C10.1473 19.6664 13.8576 17.5631 13.8576 12.0449C13.8576 6.8807 10.5368 4.73579 7.01099 4.73579ZM18.6474 18.084C19.0166 18.5213 19.5699 18.8337 20.267 18.8337C21.8864 18.8337 22.7475 17.9592 22.7475 14.1482C22.7475 11.1704 21.8659 10.1293 20.3079 10.1293C19.5874 10.1293 19.1042 10.3223 18.775 10.4538C18.7297 10.4719 18.6871 10.489 18.6474 10.5041V18.084ZM18.6474 9.75456C19.5086 9.00485 20.6563 8.31774 22.0914 8.31774C24.0389 8.31774 26.1093 9.62957 26.1093 13.4403C26.1093 17.7718 23.6084 19.6667 20.185 19.6667C19.7546 19.6667 19.078 19.5834 18.6271 19.4586C18.6271 19.4586 18.6474 20.0001 18.6474 20.7288V22.6288V23.5552C18.6474 23.6415 18.5837 23.714 18.4994 23.7236L15.5735 24.0594C15.4745 24.0708 15.388 23.992 15.388 23.891V22.6288V8.81264C15.388 8.72637 15.4516 8.65384 15.5361 8.64411L18.3808 8.31744C18.4917 8.30461 18.5881 8.39505 18.5845 8.50854L18.545 9.75456H18.6474ZM30.5534 12.7321L34.0587 12.5447C34.0587 10.0251 33.731 9.10878 32.5008 9.10878C31.4552 9.10878 30.6353 10.1083 30.5534 12.7321ZM27.3145 13.9607C27.3145 10.3374 29.9587 8.31748 32.6647 8.31748C35.4607 8.31748 37.2153 9.72068 37.3154 13.3919C37.3172 13.4633 37.26 13.5234 37.1894 13.5234H30.6821C30.6115 13.5234 30.5545 13.5836 30.5562 13.6552C30.6479 16.9629 31.9131 17.8757 33.9972 17.8757C35.0145 17.8757 35.8346 17.6356 36.5209 17.3264C36.5715 17.3035 36.6301 17.3169 36.6662 17.3598L36.9387 17.6856C36.9801 17.7347 36.9793 17.8073 36.9361 17.8541C36.1881 18.6552 34.6658 19.6665 32.6647 19.6665C29.0978 19.6665 27.3145 17.5008 27.3145 13.9607ZM41.8067 9.79611C42.8928 9.00496 44.2459 8.3177 45.7422 8.3177C47.4849 8.3177 48.4281 9.23399 48.4281 11.1082V19.2518C48.4281 19.343 48.355 19.4167 48.2652 19.4167H45.3105C45.2208 19.4167 45.148 19.343 45.148 19.2518V11.9202C45.148 10.65 44.6968 10.2544 43.7336 10.2544C43.0157 10.2544 42.2779 10.4208 41.827 10.525V19.2518C41.827 19.343 41.7539 19.4167 41.6645 19.4167H38.7298C38.6404 19.4167 38.5676 19.343 38.5676 19.2518V8.81242C38.5676 8.72614 38.6312 8.65381 38.7157 8.64418L41.5844 8.31383C41.6826 8.30266 41.7679 8.38252 41.7646 8.48317L41.7243 9.79611H41.8067ZM67.3339 9.12961C68.728 9.12961 69.5275 9.92092 69.5275 14.1273C69.5275 18.1255 68.6874 18.8543 67.4569 18.8543C65.9605 18.8543 65.284 17.9383 65.284 13.6693C65.284 10.0875 66.0425 9.12961 67.3339 9.12961ZM67.3956 8.31748C64.6281 8.31748 61.8403 10.025 61.8403 14.0233C61.8403 17.8339 64.4232 19.6667 67.3956 19.6667C70.2247 19.6667 72.9715 17.9173 72.9715 13.9191C72.9715 10.1292 70.368 8.31748 67.3956 8.31748ZM81.7544 14.1273C81.7544 9.92092 80.9552 9.12961 79.5611 9.12961C78.2694 9.12961 77.5112 10.0875 77.5112 13.6693C77.5112 17.9383 78.1878 18.8543 79.6841 18.8543C80.9142 18.8543 81.7544 18.1255 81.7544 14.1273ZM74.0668 14.0233C74.0668 10.025 76.855 8.31748 79.6224 8.31748C82.5949 8.31748 85.1984 10.1292 85.1984 13.9191C85.1984 17.9173 82.4516 19.6667 79.6224 19.6667C76.65 19.6667 74.0668 17.8339 74.0668 14.0233ZM89.8241 9.92092C90.4593 9.23381 91.6277 8.31748 92.8168 8.31748C93.8006 8.31748 94.4953 8.85877 94.4953 9.87929C94.4953 10.8788 93.7803 11.5226 92.9808 11.5226C92.1 11.5226 91.7917 11.1495 91.4025 10.504C91.2795 10.2749 91.1561 10.2332 90.9715 10.2332C90.6029 10.2332 90.1314 10.504 89.8444 10.7748V19.2206C89.8444 19.3289 89.7576 19.4165 89.6513 19.4165H86.7778C86.6711 19.4165 86.5851 19.3289 86.5851 19.2206V8.81253C86.5851 8.72611 86.6486 8.65373 86.7331 8.64415L89.5675 8.32098C89.6838 8.30771 89.7853 8.40246 89.7816 8.52155L89.7418 9.92092H89.8241Z" fill="#25201D"/>
</g>
<defs>
<clipPath id="clip0_0_5">
<rect width="94.5385" height="24.58" fill="white"/>
</clipPath>
</defs>
</svg>
